<svg xmlns="http://www.w3.org/2000/svg" xmlns:xlink="http://www.w3.org/1999/xlink" width="40" zoomAndPan="magnify" viewBox="0 0 30 30.000001" height="40" preserveAspectRatio="xMidYMid meet" version="1.0"><defs><clipPath id="4efbd6682a"><path d="M 9 0 L 29.515625 0 L 29.515625 29.03125 L 9 29.03125 Z M 9 0 " clip-rule="nonzero"/></clipPath><clipPath id="9a4fb90948"><path d="M 0.484375 17 L 9 17 L 9 29.03125 L 0.484375 29.03125 Z M 0.484375 17 " clip-rule="nonzero"/></clipPath><clipPath id="7cae0cbda4"><path d="M 10.210938 13.933594 L 11.371094 13.933594 L 11.371094 15.097656 L 10.210938 15.097656 Z M 10.210938 13.933594 " clip-rule="nonzero"/></clipPath><clipPath id="cf6658c86d"><path d="M 10.789062 13.933594 L 11.371094 14.515625 L 10.789062 15.097656 L 10.210938 14.515625 Z M 10.789062 13.933594 " clip-rule="nonzero"/></clipPath><clipPath id="fe691b8da1"><path d="M 0.210938 0.933594 L 1.371094 0.933594 L 1.371094 2.097656 L 0.210938 2.097656 Z M 0.210938 0.933594 " clip-rule="nonzero"/></clipPath><clipPath id="d353ae7d6c"><path d="M 0.789062 0.933594 L 1.371094 1.515625 L 0.789062 2.097656 L 0.210938 1.515625 Z M 0.789062 0.933594 " clip-rule="nonzero"/></clipPath><clipPath id="1c20d65c4b"><rect x="0" width="2" y="0" height="3"/></clipPath></defs><g clip-path="url(#4efbd6682a)"><path fill="#000000" d="M 28.980469 13.773438 C 27.277344 13.09375 25.664062 11.816406 24.3125 10.085938 C 22.9375 8.316406 21.828125 6.066406 21.105469 3.570312 L 20.277344 0.71875 C 20.171875 0.355469 19.839844 0.105469 19.460938 0.105469 C 19.082031 0.105469 18.75 0.355469 18.644531 0.71875 L 17.816406 3.570312 C 17.09375 6.0625 15.984375 8.316406 14.609375 10.085938 C 13.257812 11.816406 11.644531 13.09375 9.941406 13.773438 C 9.621094 13.902344 9.414062 14.207031 9.40625 14.546875 C 9.402344 14.890625 9.601562 15.203125 9.917969 15.339844 L 10.179688 15.453125 C 13.5625 16.929688 16.328125 20.566406 17.765625 25.429688 L 18.644531 28.410156 C 18.75 28.769531 19.082031 29.019531 19.460938 29.019531 C 19.835938 29.019531 20.167969 28.769531 20.277344 28.410156 L 21.15625 25.429688 C 22.59375 20.566406 25.359375 16.929688 28.742188 15.453125 L 29.003906 15.339844 C 29.320312 15.203125 29.519531 14.890625 29.515625 14.546875 C 29.507812 14.207031 29.296875 13.902344 28.980469 13.773438 Z M 19.527344 24.949219 L 19.460938 25.171875 L 19.394531 24.949219 C 17.996094 20.214844 15.394531 16.515625 12.148438 14.5625 C 13.535156 13.730469 14.832031 12.5625 15.949219 11.125 C 17.457031 9.1875 18.667969 6.738281 19.449219 4.042969 L 19.460938 4.007812 L 19.472656 4.042969 C 20.253906 6.738281 21.460938 9.1875 22.96875 11.125 C 24.089844 12.5625 25.382812 13.730469 26.773438 14.5625 C 23.527344 16.515625 20.925781 20.214844 19.527344 24.949219 Z M 19.527344 24.949219 " fill-opacity="1" fill-rule="nonzero"/></g><path fill="#000000" d="M 1.558594 8.449219 L 1.691406 8.507812 C 3.269531 9.199219 4.570312 10.925781 5.257812 13.246094 L 5.699219 14.738281 C 5.804688 15.101562 6.136719 15.347656 6.515625 15.347656 C 6.890625 15.347656 7.222656 15.101562 7.328125 14.738281 L 7.769531 13.246094 C 8.457031 10.925781 9.757812 9.199219 11.339844 8.507812 L 11.472656 8.449219 C 11.785156 8.3125 11.984375 8.003906 11.980469 7.660156 C 11.976562 7.320312 11.765625 7.015625 11.445312 6.886719 C 9.820312 6.234375 8.4375 4.425781 7.746094 2.042969 L 7.332031 0.613281 C 7.226562 0.25 6.894531 0 6.515625 0 C 6.136719 0 5.800781 0.25 5.695312 0.613281 L 5.28125 2.042969 C 4.59375 4.425781 3.207031 6.234375 1.582031 6.886719 C 1.265625 7.015625 1.054688 7.320312 1.046875 7.660156 C 1.042969 8.003906 1.242188 8.3125 1.558594 8.449219 Z M 6.515625 3.6875 C 7.195312 5.398438 8.203125 6.773438 9.421875 7.675781 C 8.203125 8.585938 7.195312 9.972656 6.515625 11.683594 C 5.832031 9.972656 4.824219 8.585938 3.605469 7.675781 C 4.824219 6.773438 5.832031 5.398438 6.515625 3.6875 Z M 6.515625 3.6875 " fill-opacity="1" fill-rule="nonzero"/><g clip-path="url(#9a4fb90948)"><path fill="#000000" d="M 8.082031 22.648438 C 7.023438 22.226562 6.117188 21.027344 5.660156 19.445312 L 5.371094 18.449219 C 5.265625 18.089844 4.933594 17.839844 4.554688 17.839844 C 4.175781 17.839844 3.84375 18.089844 3.738281 18.449219 L 3.449219 19.445312 C 2.992188 21.027344 2.085938 22.226562 1.027344 22.648438 C 0.710938 22.777344 0.5 23.082031 0.492188 23.421875 C 0.488281 23.765625 0.6875 24.074219 1.003906 24.210938 L 1.09375 24.253906 C 2.109375 24.695312 2.984375 25.867188 3.433594 27.382812 L 3.738281 28.425781 C 3.847656 28.785156 4.179688 29.03125 4.554688 29.03125 C 4.933594 29.03125 5.265625 28.785156 5.371094 28.425781 L 5.679688 27.382812 C 6.125 25.867188 7 24.695312 8.015625 24.253906 L 8.109375 24.210938 C 8.421875 24.074219 8.621094 23.765625 8.617188 23.421875 C 8.613281 23.082031 8.402344 22.777344 8.082031 22.648438 Z M 4.554688 25.582031 C 4.132812 24.714844 3.585938 23.984375 2.945312 23.4375 C 3.585938 22.898438 4.132812 22.171875 4.554688 21.300781 C 4.976562 22.171875 5.523438 22.898438 6.164062 23.4375 C 5.523438 23.984375 4.976562 24.714844 4.554688 25.582031 Z M 4.554688 25.582031 " fill-opacity="1" fill-rule="nonzero"/></g><g clip-path="url(#7cae0cbda4)"><g clip-path="url(#cf6658c86d)"><g transform="matrix(1, 0, 0, 1, 10, 13)"><g clip-path="url(#1c20d65c4b)"><g clip-path="url(#fe691b8da1)"><g clip-path="url(#d353ae7d6c)"><path fill="#000000" d="M 0.210938 0.933594 L 1.371094 0.933594 L 1.371094 2.097656 L 0.210938 2.097656 Z M 0.210938 0.933594 " fill-opacity="1" fill-rule="nonzero"/></g></g></g></g></g></g></svg>